<svg xmlns="http://www.w3.org/2000/svg" width="67.057" height="67.057" viewBox="0 0 87.057 87.057">
  <g id="Group_6044" data-name="Group 6044" transform="translate(-957.379 -1144.766)">
    <path id="Path_33140" data-name="Path 33140" d="M19.84,16.56a7.338,7.338,0,0,1-.6,2.92,13.482,13.482,0,0,1-1.56,2.7,22.125,22.125,0,0,1-2.16,2.5q-1.2,1.2-2.36,2.28-.6.56-1.3,1.26t-1.34,1.42q-.64.72-1.14,1.34A3.325,3.325,0,0,0,8.76,32H20.68v5H2.2a6.448,6.448,0,0,1-.08-1.12v-.96a9.664,9.664,0,0,1,.62-3.52,13.16,13.16,0,0,1,1.62-2.98,18.761,18.761,0,0,1,2.26-2.58q1.26-1.2,2.5-2.4.96-.92,1.8-1.74a19.836,19.836,0,0,0,1.48-1.6,7.3,7.3,0,0,0,1-1.56,3.737,3.737,0,0,0,.36-1.58,2.851,2.851,0,0,0-1-2.48,4.134,4.134,0,0,0-2.48-.72,5.894,5.894,0,0,0-2.02.34,10.222,10.222,0,0,0-1.72.8,10.591,10.591,0,0,0-1.34.92q-.56.46-.84.74L1.4,12.4A15.1,15.1,0,0,1,5.5,9.7a12.023,12.023,0,0,1,5.02-1.06,13.93,13.93,0,0,1,4.2.56,7.853,7.853,0,0,1,2.9,1.58,6.127,6.127,0,0,1,1.68,2.48A9.465,9.465,0,0,1,19.84,16.56Z" transform="translate(990.084 1166.646)" fill="#ff9bbc"/>
    <rect id="Rectangle_8544" data-name="Rectangle 8544" width="58.559" height="58.559" transform="translate(959.5 1188.294) rotate(-45)" fill="none" stroke="#dd003b" stroke-linecap="round" stroke-linejoin="round" stroke-width="3" opacity="0.175"/>
  </g>
</svg>
