<svg xmlns="http://www.w3.org/2000/svg" width="67.057" height="67.057" viewBox="0 0 87.057 87.057">
  <g id="Group_6045" data-name="Group 6045" transform="translate(-1197.194 -1144.766)">
    <path id="Path_33141" data-name="Path 33141" d="M9.12,37.6a19.709,19.709,0,0,1-2.28-.14q-1.2-.14-2.32-.38t-2.04-.52a11.75,11.75,0,0,1-1.44-.52L2.2,31.08q1.04.44,2.66.94a13.818,13.818,0,0,0,4.02.5,6.377,6.377,0,0,0,4.04-1.04,3.42,3.42,0,0,0,1.28-2.8,3.384,3.384,0,0,0-.46-1.82,3.516,3.516,0,0,0-1.26-1.2,5.6,5.6,0,0,0-1.9-.64,14.492,14.492,0,0,0-2.34-.18H5.92v-4.8H8.56a8.858,8.858,0,0,0,1.7-.16,4.537,4.537,0,0,0,1.46-.54,2.827,2.827,0,0,0,1.02-1.04,3.288,3.288,0,0,0,.38-1.66,2.616,2.616,0,0,0-.32-1.32,2.872,2.872,0,0,0-.82-.92,3.574,3.574,0,0,0-1.16-.54,5.071,5.071,0,0,0-1.34-.18,9.414,9.414,0,0,0-3.18.52,13.278,13.278,0,0,0-2.66,1.28L1.52,11.12q.64-.4,1.5-.84a14.8,14.8,0,0,1,1.9-.8,17.364,17.364,0,0,1,2.22-.6,12.526,12.526,0,0,1,2.5-.24,13.675,13.675,0,0,1,4.22.58,7.931,7.931,0,0,1,2.94,1.64,6.61,6.61,0,0,1,1.72,2.48,8.377,8.377,0,0,1,.56,3.1,6.381,6.381,0,0,1-3.4,5.52,7.186,7.186,0,0,1,3.34,2.62,7.269,7.269,0,0,1,1.18,4.18,9.551,9.551,0,0,1-.64,3.54,7.139,7.139,0,0,1-2,2.8,9.6,9.6,0,0,1-3.46,1.84A16.691,16.691,0,0,1,9.12,37.6Z" transform="translate(1230.315 1167.61)" fill="#ff98b9"/>
    <rect id="Rectangle_8546" data-name="Rectangle 8546" width="58.559" height="58.559" transform="translate(1199.315 1188.294) rotate(-45)" fill="none" stroke="#dd003b" stroke-linecap="round" stroke-linejoin="round" stroke-width="3" opacity="0.175"/>
  </g>
</svg>
