<svg xmlns="http://www.w3.org/2000/svg" width="167.443" height="170.652" viewBox="0 0 167.443 170.652">
  <g id="Group_6021" data-name="Group 6021" transform="translate(-137.18 -1045)">
    <path id="Path_33134" data-name="Path 33134" d="M216.84,270.731c-16.143-3.94-27.334-11.273-34.925-18.528a82.592,82.592,0,1,0-31.475,14.775C186.388,281.826,216.84,270.731,216.84,270.731Z" transform="translate(87.783 940.939)" fill="#ffebf2"/>
    <path id="Path_33135" data-name="Path 33135" d="M79.3,148.813a11.434,11.434,0,0,1-5.309-16.961c4.7-7.047,13.437-14.6,29.413-15.755,20.567-1.484,39.911,10.625,41.306,29.957.972,13.437-8.443,22.386-21.2,28.958-3.022.86-4.034,4.674-4.23,8.61a11.322,11.322,0,0,1-10.535,10.651h0a11.379,11.379,0,0,1-12.169-10.529l-.259-3.6c-.437-6.033-.519-10.988,5.362-15.41,7.979-5.953,15.764-6.929,15.062-16.662a10.954,10.954,0,0,0-11.919-10.442,15.136,15.136,0,0,0-11.828,6.949,11.434,11.434,0,0,1-13.694,4.23Zm46.8,67.775a15.741,15.741,0,1,1-16.905-14.627A15.694,15.694,0,0,1,126.1,216.587Z" transform="translate(115.642 955.577)" fill="#ff9bbc"/>
  </g>
</svg>
